<svg viewBox="0 0 331 70" xmlns="http://www.w3.org/2000/svg">
	<path d="M17.5 36.032V0h4.096v32.448h19.968v3.584H17.5zm36.344-3.456H74.58v3.456H49.812V0H73.94v3.648H53.844v12.416H69.78v3.456H53.844v13.056zm27.192 3.456L93.708 0h6.784l12.864 36.032h-4.352L105.1 24.768H89.292l-3.904 11.264h-4.352zm16.192-34.24l-6.784 19.52h13.504l-6.72-19.52zm24.184 34.24V0h11.904c4.565 0 8.096.725 10.592 2.176 2.496 1.45 3.744 4.16 3.744 8.128 0 2.56-.693 4.768-2.08 6.624-1.387 1.856-3.51 2.784-6.368 2.784 1.792 0 3.125.384 4 1.152.875.768 1.472 1.739 1.792 2.912.32 1.173.501 2.39.544 3.648.043 1.259.128 2.4.256 3.424s.437 1.77.928 2.24c.49.47 1.333.49 2.528.064v2.688c-.384.341-.97.587-1.76.736-.79.15-1.61.096-2.464-.16-.853-.256-1.568-.832-2.144-1.728-.576-.896-.864-2.219-.864-3.968 0-2.645-.15-4.693-.448-6.144-.299-1.45-.97-2.475-2.016-3.072-1.045-.597-2.677-.939-4.896-1.024-2.219-.085-5.248-.085-9.088 0v15.552h-4.16zm4.16-18.688h8.384c3.37 0 5.877-.448 7.52-1.344 1.643-.896 2.464-2.71 2.464-5.44 0-2.133-.448-3.701-1.344-4.704-.896-1.003-2.187-1.643-3.872-1.92-1.685-.277-3.765-.416-6.24-.416h-6.912v13.824zM183.74 0h4.16v36.032h-7.744l-17.92-34.176h-.128v34.176h-4.16V0h7.232l18.432 34.176h.128V0zm30.928 36.928c-5.248 0-9.227-1.419-11.936-4.256-2.71-2.837-4.064-6.837-4.064-12V0h8.256v20.608c0 2.517.416 4.416 1.248 5.696.832 1.28 1.845 2.144 3.04 2.592 1.195.448 2.347.672 3.456.672 1.28 0 2.517-.224 3.712-.672 1.195-.448 2.176-1.312 2.944-2.592.768-1.28 1.152-3.179 1.152-5.696V0h8.256v20.672c0 5.248-1.333 9.27-4 12.064-2.667 2.795-6.688 4.192-12.064 4.192zm23.416-.896l12.608-18.944L239.044 0h9.152l7.68 12.544L263.556 0h9.024l-11.52 17.088 12.608 18.944h-8.96l-8.832-14.144-8.768 14.144h-9.024zm75.96-18.048c0 4.736-.939 8.416-2.816 11.04-1.877 2.624-4.533 4.448-7.968 5.472-3.435 1.024-7.456 1.536-12.064 1.536h-10.112V0h10.112c4.608 0 8.63.672 12.064 2.016 3.435 1.344 6.09 3.339 7.968 5.984 1.877 2.645 2.816 5.973 2.816 9.984zM288.7 29.696h4.8c2.517 0 4.704-.31 6.56-.928 1.856-.619 3.285-1.77 4.288-3.456 1.003-1.685 1.504-4.15 1.504-7.392 0-3.755-1.11-6.57-3.328-8.448-2.219-1.877-5.227-2.816-9.024-2.816h-4.8v23.04zM22.042 66.242c-.812 0-1.54-.168-2.184-.504a3.708 3.708 0 0 1-1.523-1.47c-.37-.644-.556-1.428-.556-2.352.014-.91.21-1.701.588-2.373a4.09 4.09 0 0 1 1.523-1.565c.637-.37 1.368-.556 2.194-.556.812 0 1.508.154 2.09.462.58.308 1.039.71 1.375 1.208a3.6 3.6 0 0 1 .609 1.585h-1.617c-.112-.546-.378-.973-.798-1.281-.42-.308-.952-.462-1.596-.462-.84 0-1.494.266-1.963.798-.47.532-.704 1.218-.704 2.058 0 .896.227 1.606.683 2.132.455.525 1.109.787 1.963.787.602 0 1.127-.154 1.575-.462.448-.308.728-.756.84-1.344h1.617a3.727 3.727 0 0 1-2.016 2.877c-.588.308-1.288.462-2.1.462zm5.796-.21v-8.589h1.617l.147 2.331c.084-.378.248-.745.494-1.102.245-.358.587-.651 1.029-.883.44-.23 1.004-.346 1.69-.346h.357v1.932h-.378c-.854 0-1.512.108-1.974.325-.462.218-.784.532-.966.945-.182.414-.273.921-.273 1.523v3.864h-1.743zm9.555.189c-.798 0-1.442-.185-1.932-.556-.49-.372-.85-.89-1.081-1.555-.232-.665-.347-1.424-.347-2.278 0-1.302.266-2.37.798-3.203.532-.833 1.386-1.249 2.562-1.249.63 0 1.141.112 1.533.336.392.224.696.476.913.756.218.28.368.525.452.735h.042v-1.764h1.785v8.589h-1.491l-.294-1.533h-.042c-.084.21-.238.451-.462.725-.224.273-.532.507-.924.703-.392.196-.896.294-1.512.294zm.693-1.491c.826 0 1.403-.266 1.733-.798.329-.532.493-1.225.493-2.079 0-.896-.171-1.603-.514-2.121-.344-.518-.914-.777-1.712-.777-.588 0-1.05.13-1.386.389a2.145 2.145 0 0 0-.725 1.039c-.147.434-.22.917-.22 1.449 0 .826.175 1.515.525 2.069.35.553.952.829 1.806.829zm6.342 1.344v-7.371h-1.26v-1.26h1.26v-1.659c0-.616.136-1.078.41-1.386.273-.308.71-.462 1.312-.462h2.394v1.386h-2.373v2.121h2.268v1.26h-2.268v7.371h-1.743zm8.274-.042c-.602 0-1.04-.154-1.313-.462-.273-.308-.409-.777-.409-1.407v-5.46h-1.323v-1.26c.434 0 .76-.038.977-.115.217-.078.363-.273.44-.589.078-.315.116-.815.116-1.501h1.449v2.205h1.974v1.26h-1.974v5.943h1.995v1.386h-1.932zm4.872-9.534c-.378.014-.63-.077-.756-.273s-.189-.441-.189-.735c0-.252.063-.476.189-.672.126-.196.378-.294.756-.294.364 0 .612.098.745.294.134.196.2.42.2.672 0 .294-.066.535-.2.724-.133.19-.381.284-.745.284zm-.882 9.534v-8.589h1.743v8.589h-1.743zm3.675 0v-8.568h1.491l.294 1.974h.042c.014-.056.07-.189.168-.399.098-.21.259-.437.483-.683.224-.245.525-.458.903-.64s.854-.273 1.428-.273c.756 0 1.344.143 1.764.43.42.288.728.658.924 1.114.196.455.318.934.367 1.438.05.504.074.973.074 1.407v4.2h-1.701v-4.221c0-.532-.056-1.011-.168-1.438-.112-.428-.318-.763-.62-1.008-.3-.246-.738-.368-1.312-.368-.588 0-1.057.14-1.407.42-.35.28-.595.644-.735 1.092a4.76 4.76 0 0 0-.21 1.428v4.095h-1.785zm11.823 3.675v-1.638h4.032V64.31h-.042c-.028.056-.098.185-.21.388a3.219 3.219 0 0 1-.514.662 3.031 3.031 0 0 1-.914.62c-.378.175-.833.262-1.365.262-1.26 0-2.184-.41-2.772-1.229-.588-.819-.882-1.872-.882-3.16 0-1.316.301-2.38.903-3.192.602-.812 1.526-1.218 2.772-1.218.56 0 1.025.091 1.397.273.37.182.668.399.892.651a3.31 3.31 0 0 1 .672 1.092h.042l.021-2.016h1.785v9.681c0 .924-.175 1.585-.525 1.985-.35.399-.931.598-1.743.598H72.19zm1.47-4.977c.812 0 1.435-.262 1.869-.788.434-.525.651-1.221.651-2.089 0-.84-.206-1.522-.62-2.047-.413-.526-1.018-.788-1.816-.788-.616 0-1.11.136-1.48.41a2.269 2.269 0 0 0-.798 1.06 3.893 3.893 0 0 0-.242 1.365c0 .49.073.955.22 1.396.148.442.4.798.757 1.071.357.274.843.41 1.459.41zm14.784 1.512c-.966 0-1.757-.213-2.373-.64a3.853 3.853 0 0 1-1.365-1.649 5.235 5.235 0 0 1-.441-2.121c-.014-.826.143-1.575.472-2.247a3.843 3.843 0 0 1 1.428-1.596c.624-.392 1.369-.588 2.237-.588.742 0 1.41.164 2.005.493a3.692 3.692 0 0 1 1.418 1.387c.35.595.539 1.298.567 2.11 0 .042.004.122.01.242.007.119.011.22.011.304h-6.489c0 .896.22 1.592.661 2.09.442.497 1.054.745 1.838.745.588 0 1.088-.15 1.501-.452a1.89 1.89 0 0 0 .767-1.207h1.701a3.52 3.52 0 0 1-1.218 2.237c-.686.595-1.596.892-2.73.892zm-2.457-5.166h4.662a3.63 3.63 0 0 0-.126-.609 2.65 2.65 0 0 0-.346-.745 1.96 1.96 0 0 0-.683-.62c-.294-.168-.672-.252-1.134-.252-.574 0-1.025.122-1.355.367a2.326 2.326 0 0 0-.734.883 2.936 2.936 0 0 0-.284.976zm8.106 4.956v-8.568h1.491l.294 1.974h.042c.014-.056.07-.189.168-.399.098-.21.259-.437.483-.683.224-.245.525-.458.903-.64s.854-.273 1.428-.273c.756 0 1.344.143 1.764.43.42.288.728.658.924 1.114.196.455.319.934.367 1.438.05.504.074.973.074 1.407v4.2h-1.701v-4.221c0-.532-.056-1.011-.168-1.438-.112-.428-.318-.763-.62-1.008-.3-.246-.738-.368-1.312-.368-.588 0-1.057.14-1.407.42-.35.28-.595.644-.735 1.092a4.76 4.76 0 0 0-.21 1.428v4.095h-1.785zm11.319-9.408c-.392 0-.654-.101-.788-.305a1.331 1.331 0 0 1-.199-.745c0-.266.066-.5.2-.703.133-.204.395-.305.787-.305.378 0 .633.101.766.304.134.204.2.438.2.704 0 .294-.066.542-.2.745-.133.204-.388.305-.766.305zm-.903.819h1.764v10.416c0 .63-.14 1.095-.42 1.397-.28.3-.714.451-1.302.451h-1.491v-1.386h1.449V57.443zm7.644 8.799c-1.428 0-2.492-.413-3.192-1.239-.7-.826-1.05-1.876-1.05-3.15-.014-1.288.336-2.345 1.05-3.171.714-.826 1.778-1.246 3.192-1.26 1.372 0 2.415.406 3.129 1.218.714.812 1.071 1.883 1.071 3.213 0 .826-.15 1.571-.451 2.236a3.518 3.518 0 0 1-1.386 1.576c-.624.385-1.411.577-2.363.577zm0-1.491c.672 0 1.186-.147 1.543-.441.358-.294.606-.668.746-1.123a4.722 4.722 0 0 0 0-2.793 2.358 2.358 0 0 0-.745-1.134c-.358-.302-.872-.452-1.544-.452-.686 0-1.211.15-1.575.452a2.329 2.329 0 0 0-.756 1.134 4.722 4.722 0 0 0 0 2.793c.14.455.392.829.756 1.123.364.294.889.441 1.575.441zm4.956 5.187v-1.365h1.239c.294 0 .539-.066.735-.2.196-.133.434-.486.714-1.06l.735-1.617-3.36-8.253h1.806l2.415 6.447 2.583-6.447h1.827l-4.41 10.059c-.308.714-.588 1.246-.84 1.596-.252.35-.532.577-.84.683-.308.105-.693.157-1.155.157h-1.449zm12.726-3.717c-.798 0-1.442-.185-1.932-.556-.49-.372-.85-.89-1.082-1.555-.23-.665-.346-1.424-.346-2.278 0-1.302.266-2.37.798-3.203.532-.833 1.386-1.249 2.562-1.249.63 0 1.141.112 1.533.336.392.224.696.476.913.756.218.28.368.525.452.735h.042v-1.764h1.785v8.589h-1.491l-.294-1.533h-.042c-.084.21-.238.451-.462.725-.224.273-.532.507-.924.703-.392.196-.896.294-1.512.294zm.693-1.491c.826 0 1.403-.266 1.733-.798.329-.532.493-1.225.493-2.079 0-.896-.171-1.603-.514-2.121-.344-.518-.914-.777-1.712-.777-.588 0-1.05.13-1.386.389a2.145 2.145 0 0 0-.725 1.039c-.147.434-.22.917-.22 1.449 0 .826.175 1.515.525 2.069.35.553.952.829 1.806.829zm10.563 1.512c-.532 0-.987-.087-1.365-.263a3.181 3.181 0 0 1-1.449-1.28 14.93 14.93 0 0 1-.21-.389h-.042l-.273 1.722h-1.512V54.209h1.785l.021 5.25h.042a3.31 3.31 0 0 1 .672-1.092c.224-.252.525-.469.903-.651.378-.182.854-.273 1.428-.273 1.246 0 2.166.413 2.761 1.239.596.826.893 1.89.893 3.192 0 1.288-.297 2.338-.893 3.15-.595.812-1.515 1.218-2.761 1.218zm-.504-1.512c.616 0 1.102-.136 1.46-.41.357-.273.608-.63.756-1.07.147-.442.22-.907.22-1.397 0-.476-.08-.931-.242-1.365a2.269 2.269 0 0 0-.798-1.06c-.37-.274-.864-.41-1.48-.41-.812 0-1.421.262-1.827.788-.406.525-.609 1.207-.609 2.047 0 .868.213 1.564.64 2.09.428.525 1.054.787 1.88.787zm5.943 1.302V54.209h1.722v11.823h-1.722zm7.518.21c-.966 0-1.757-.213-2.373-.64a3.853 3.853 0 0 1-1.365-1.649 5.235 5.235 0 0 1-.441-2.121c-.014-.826.143-1.575.472-2.247a3.843 3.843 0 0 1 1.428-1.596c.624-.392 1.369-.588 2.237-.588.742 0 1.41.164 2.006.493a3.692 3.692 0 0 1 1.417 1.387c.35.595.539 1.298.567 2.11 0 .042.004.122.01.242.007.119.011.22.011.304h-6.489c0 .896.22 1.592.662 2.09.44.497 1.053.745 1.837.745.588 0 1.088-.15 1.502-.452a1.89 1.89 0 0 0 .766-1.207h1.701a3.52 3.52 0 0 1-1.218 2.237c-.686.595-1.596.892-2.73.892zm-2.457-5.166h4.662a3.63 3.63 0 0 0-.126-.609 2.65 2.65 0 0 0-.347-.745 1.96 1.96 0 0 0-.682-.62c-.294-.168-.672-.252-1.134-.252-.574 0-1.025.122-1.355.367a2.326 2.326 0 0 0-.734.883 2.936 2.936 0 0 0-.284.976zm16.674 5.166c-1.26 0-2.184-.41-2.772-1.229-.588-.819-.882-1.865-.882-3.139 0-1.316.297-2.383.893-3.203.595-.819 1.515-1.228 2.761-1.228.56 0 1.029.091 1.407.273.378.182.682.399.913.651a3.157 3.157 0 0 1 .683 1.092h.042l.021-5.25h1.785v11.823h-1.512l-.273-1.722h-.042a9.257 9.257 0 0 1-.22.388 3.59 3.59 0 0 1-.525.662 3.031 3.031 0 0 1-.914.62c-.378.175-.833.262-1.365.262zm.504-1.512c.812 0 1.435-.262 1.869-.788.434-.525.651-1.221.651-2.089 0-.84-.206-1.522-.62-2.047-.413-.526-1.018-.788-1.816-.788-.616 0-1.11.136-1.48.41a2.269 2.269 0 0 0-.798 1.06 3.893 3.893 0 0 0-.242 1.365c0 .49.073.955.22 1.396.148.442.4.798.757 1.071.357.274.843.41 1.459.41zm7.371-8.232c-.378.014-.63-.077-.756-.273s-.189-.441-.189-.735c0-.252.063-.476.189-.672.126-.196.378-.294.756-.294.364 0 .612.098.746.294.133.196.199.42.199.672 0 .294-.066.535-.2.724-.133.19-.381.284-.745.284zm-.882 9.534v-8.589h1.743v8.589h-1.743zm5.922 3.675v-1.638h4.032V64.31h-.042a14.93 14.93 0 0 1-.21.388 3.219 3.219 0 0 1-.514.662 3.031 3.031 0 0 1-.914.62c-.378.175-.833.262-1.365.262-1.26 0-2.184-.41-2.772-1.229-.588-.819-.882-1.872-.882-3.16 0-1.316.301-2.38.903-3.192.602-.812 1.526-1.218 2.772-1.218.56 0 1.025.091 1.397.273.37.182.668.399.892.651a3.31 3.31 0 0 1 .672 1.092h.042l.021-2.016h1.785v9.681c0 .924-.175 1.585-.525 1.985-.35.399-.931.598-1.743.598h-3.549zm1.47-4.977c.812 0 1.435-.262 1.869-.788.434-.525.651-1.221.651-2.089 0-.84-.206-1.522-.62-2.047-.413-.526-1.018-.788-1.816-.788-.616 0-1.11.136-1.48.41a2.269 2.269 0 0 0-.798 1.06 3.893 3.893 0 0 0-.242 1.365c0 .49.073.955.22 1.396.148.442.4.798.756 1.071.358.274.844.41 1.46.41zm7.287-8.232c-.378.014-.63-.077-.756-.273s-.189-.441-.189-.735c0-.252.063-.476.189-.672.126-.196.378-.294.756-.294.364 0 .612.098.745.294.134.196.2.42.2.672 0 .294-.066.535-.2.724-.133.19-.381.284-.745.284zm-.882 9.534v-8.589h1.743v8.589h-1.743zm6.321 0c-.602 0-1.04-.154-1.313-.462-.273-.308-.409-.777-.409-1.407v-5.46h-1.323v-1.26c.434 0 .76-.038.977-.115.217-.078.364-.273.44-.589.078-.315.116-.815.116-1.501h1.449v2.205h1.974v1.26h-1.974v5.943h1.995v1.386h-1.932zm6.615.189c-.798 0-1.442-.185-1.932-.556-.49-.372-.85-.89-1.082-1.555-.23-.665-.346-1.424-.346-2.278 0-1.302.266-2.37.798-3.203.532-.833 1.386-1.249 2.562-1.249.63 0 1.141.112 1.533.336.392.224.696.476.913.756.218.28.368.525.452.735h.042v-1.764h1.785v8.589h-1.491l-.294-1.533h-.042c-.084.21-.238.451-.462.725-.224.273-.532.507-.924.703-.392.196-.896.294-1.512.294zm.693-1.491c.826 0 1.403-.266 1.733-.798.329-.532.493-1.225.493-2.079 0-.896-.171-1.603-.514-2.121-.344-.518-.914-.777-1.712-.777-.588 0-1.05.13-1.386.389a2.145 2.145 0 0 0-.725 1.039c-.147.434-.22.917-.22 1.449 0 .826.175 1.515.525 2.069.35.553.952.829 1.806.829zm5.817 1.302V54.209h1.722v11.823h-1.722zm12.306.21c-.966 0-1.757-.213-2.373-.64a3.853 3.853 0 0 1-1.365-1.649 5.235 5.235 0 0 1-.441-2.121c-.014-.826.143-1.575.473-2.247a3.843 3.843 0 0 1 1.428-1.596c.623-.392 1.368-.588 2.236-.588.742 0 1.41.164 2.006.493a3.692 3.692 0 0 1 1.417 1.387c.35.595.539 1.298.567 2.11 0 .042.004.122.01.242.008.119.011.22.011.304h-6.489c0 .896.22 1.592.661 2.09.442.497 1.054.745 1.838.745.588 0 1.088-.15 1.501-.452a1.89 1.89 0 0 0 .767-1.207h1.701a3.52 3.52 0 0 1-1.218 2.237c-.686.595-1.596.892-2.73.892zm-2.457-5.166h4.662a3.63 3.63 0 0 0-.126-.609 2.65 2.65 0 0 0-.346-.745 1.96 1.96 0 0 0-.683-.62c-.294-.168-.672-.252-1.134-.252-.574 0-1.025.122-1.355.367a2.326 2.326 0 0 0-.734.883 2.936 2.936 0 0 0-.284.976zm7.413 4.956l3.15-4.431-2.982-4.158h1.932l2.142 3.108 2.142-3.108h1.953l-2.982 4.158 3.171 4.431h-1.953l-2.331-3.36-2.31 3.36h-1.932zm14.826.21c-.546 0-1.004-.087-1.375-.263a3.063 3.063 0 0 1-1.407-1.28 43.368 43.368 0 0 1-.2-.389h-.042v5.397h-1.785V57.443h1.512l.294 2.016h.042c.014-.056.07-.189.168-.399.098-.21.259-.441.483-.693a2.86 2.86 0 0 1 .893-.651c.37-.182.836-.273 1.396-.273 1.26 0 2.191.413 2.793 1.239.602.826.903 1.89.903 3.192 0 1.302-.304 2.355-.913 3.16-.61.806-1.53 1.208-2.762 1.208zm-.462-1.512c.616 0 1.102-.136 1.46-.41.357-.273.608-.63.756-1.07.147-.442.22-.907.22-1.397 0-.476-.08-.931-.242-1.365a2.269 2.269 0 0 0-.797-1.06c-.372-.274-.865-.41-1.481-.41-.812 0-1.421.262-1.827.788-.406.525-.609 1.207-.609 2.047 0 .868.213 1.564.64 2.09.428.525 1.054.787 1.88.787zm9.513 1.512c-.966 0-1.757-.213-2.373-.64a3.853 3.853 0 0 1-1.365-1.649 5.235 5.235 0 0 1-.441-2.121c-.014-.826.143-1.575.472-2.247a3.843 3.843 0 0 1 1.429-1.596c.623-.392 1.368-.588 2.236-.588.742 0 1.41.164 2.005.493a3.692 3.692 0 0 1 1.418 1.387c.35.595.539 1.298.567 2.11 0 .042.004.122.01.242.007.119.011.22.011.304h-6.489c0 .896.22 1.592.661 2.09.442.497 1.054.745 1.838.745.588 0 1.088-.15 1.501-.452a1.89 1.89 0 0 0 .767-1.207h1.701a3.52 3.52 0 0 1-1.218 2.237c-.686.595-1.596.892-2.73.892zm-2.457-5.166h4.662a3.63 3.63 0 0 0-.126-.609 2.65 2.65 0 0 0-.346-.745 1.96 1.96 0 0 0-.683-.62c-.294-.168-.672-.252-1.134-.252-.574 0-1.025.122-1.355.367a2.326 2.326 0 0 0-.734.883 2.936 2.936 0 0 0-.284.976zm8.253 4.956v-8.589h1.617l.147 2.331c.084-.378.248-.745.493-1.102.246-.358.588-.651 1.03-.883.44-.23 1.004-.346 1.69-.346h.357v1.932h-.378c-.854 0-1.512.108-1.974.325-.462.218-.784.532-.966.945-.182.414-.273.921-.273 1.523v3.864h-1.743zm7.812-9.534c-.378.014-.63-.077-.756-.273s-.189-.441-.189-.735c0-.252.063-.476.189-.672.126-.196.378-.294.756-.294.364 0 .612.098.745.294.134.196.2.42.2.672 0 .294-.066.535-.2.724-.133.19-.381.284-.745.284zm-.882 9.534v-8.589h1.743v8.589h-1.743zm7.623.21c-.966 0-1.757-.213-2.373-.64a3.853 3.853 0 0 1-1.365-1.649 5.235 5.235 0 0 1-.441-2.121c-.014-.826.143-1.575.473-2.247a3.843 3.843 0 0 1 1.428-1.596c.623-.392 1.368-.588 2.236-.588.742 0 1.41.164 2.005.493a3.692 3.692 0 0 1 1.418 1.387c.35.595.539 1.298.567 2.11 0 .042.003.122.01.242.007.119.011.22.011.304h-6.489c0 .896.22 1.592.661 2.09.442.497 1.054.745 1.838.745.588 0 1.088-.15 1.501-.452a1.89 1.89 0 0 0 .767-1.207h1.701a3.52 3.52 0 0 1-1.218 2.237c-.686.595-1.596.892-2.73.892zm-2.457-5.166h4.662a3.63 3.63 0 0 0-.126-.609 2.65 2.65 0 0 0-.346-.745 1.96 1.96 0 0 0-.683-.62c-.294-.168-.672-.252-1.134-.252-.574 0-1.025.122-1.354.367a2.326 2.326 0 0 0-.736.883 2.936 2.936 0 0 0-.283.976zm8.106 4.956v-8.568h1.491l.294 1.974h.042c.014-.056.07-.189.168-.399.098-.21.259-.437.483-.683.224-.245.525-.458.903-.64s.854-.273 1.428-.273c.756 0 1.344.143 1.764.43.42.288.728.658.924 1.114.196.455.319.934.368 1.438.048.504.073.973.073 1.407v4.2h-1.701v-4.221c0-.532-.056-1.011-.168-1.438-.112-.428-.318-.763-.62-1.008-.3-.246-.738-.368-1.312-.368-.588 0-1.057.14-1.407.42-.35.28-.595.644-.735 1.092a4.76 4.76 0 0 0-.21 1.428v4.095h-1.785zm13.608.21c-.812 0-1.54-.168-2.184-.504a3.708 3.708 0 0 1-1.523-1.47c-.37-.644-.556-1.428-.556-2.352.014-.91.21-1.701.588-2.373a4.09 4.09 0 0 1 1.522-1.565c.638-.37 1.369-.556 2.195-.556.812 0 1.508.154 2.09.462.58.308 1.039.71 1.375 1.208a3.6 3.6 0 0 1 .609 1.585h-1.617c-.112-.546-.378-.973-.798-1.281-.42-.308-.952-.462-1.596-.462-.84 0-1.494.266-1.964.798-.469.532-.703 1.218-.703 2.058 0 .896.227 1.606.682 2.132.456.525 1.11.787 1.964.787.602 0 1.127-.154 1.575-.462.448-.308.728-.756.84-1.344h1.617a3.727 3.727 0 0 1-2.016 2.877c-.588.308-1.288.462-2.1.462zm9.597 0c-.966 0-1.757-.213-2.373-.64a3.853 3.853 0 0 1-1.365-1.649 5.235 5.235 0 0 1-.441-2.121c-.014-.826.143-1.575.473-2.247a3.843 3.843 0 0 1 1.428-1.596c.623-.392 1.368-.588 2.236-.588.742 0 1.41.164 2.006.493a3.692 3.692 0 0 1 1.417 1.387c.35.595.539 1.298.567 2.11 0 .042.004.122.01.242.007.119.011.22.011.304h-6.489c0 .896.22 1.592.662 2.09.44.497 1.053.745 1.837.745.588 0 1.088-.15 1.502-.452a1.89 1.89 0 0 0 .766-1.207h1.701a3.52 3.52 0 0 1-1.218 2.237c-.686.595-1.596.892-2.73.892zm-2.457-5.166h4.662a3.63 3.63 0 0 0-.126-.609 2.65 2.65 0 0 0-.347-.745 1.96 1.96 0 0 0-.682-.62c-.294-.168-.672-.252-1.134-.252-.574 0-1.025.122-1.355.367a2.326 2.326 0 0 0-.734.883 2.936 2.936 0 0 0-.284.976zm11.613 5.166c-.644 0-1.25-.14-1.817-.42a3.666 3.666 0 0 1-1.365-1.124 2.527 2.527 0 0 1-.514-1.522h1.638c0 .028.007.133.021.315.014.182.077.385.189.609.112.224.311.42.599.588.287.168.696.252 1.228.252.588 0 1.064-.105 1.428-.315.364-.21.546-.504.546-.882 0-.35-.133-.623-.399-.819-.266-.196-.609-.353-1.029-.472-.42-.12-.864-.235-1.334-.347a7.177 7.177 0 0 1-1.322-.451 2.672 2.672 0 0 1-1.008-.778c-.26-.329-.382-.773-.368-1.333 0-.756.318-1.34.955-1.754.638-.413 1.446-.619 2.426-.619.63 0 1.232.101 1.806.304a3.175 3.175 0 0 1 1.418.977c.37.448.549 1.05.535 1.806h-1.617c.014-.476-.094-.836-.325-1.081a1.786 1.786 0 0 0-.851-.505 3.624 3.624 0 0 0-.945-.136c-.56 0-1.001.101-1.323.305-.322.203-.483.472-.483.808 0 .364.133.64.399.83.266.189.609.342 1.029.462.42.119.864.234 1.333.346.47.112.914.259 1.334.441.42.182.766.441 1.04.777.273.336.409.784.409 1.344 0 .826-.343 1.431-1.029 1.817-.686.385-1.554.577-2.604.577zM0 46.032h331v-1H0z"/>
</svg>
